<svg xmlns="http://www.w3.org/2000/svg" viewBox="0 0 400 600" fill="none" stroke="currentColor" stroke-width="1" stroke-linecap="round" stroke-linejoin="round">
  <!-- Shore Temple - Main Tower -->
  <path d="M180 580 L180 420 L150 400 L165 380 L155 360 L168 340 L158 320 L172 300 L162 280 L178 260 L168 240 L183 220 L175 200 L190 180 L182 160 L196 140 L189 120 L202 100 L197 80 L210 60 L223 80 L218 100 L231 120 L224 140 L238 160 L230 180 L245 200 L237 220 L252 240 L242 260 L258 280 L248 300 L262 320 L252 340 L265 360 L255 380 L270 400 L240 420 L240 580"/>
  <!-- Temple base -->
  <path d="M145 580 L145 490 L255 490 L255 580"/>
  <path d="M130 580 L130 505 L270 505 L270 580"/>
  <!-- Temple details - horizontal lines -->
  <path d="M168 240 L232 240"/>
  <path d="M172 280 L228 280"/>
  <path d="M175 320 L225 320"/>
  <path d="M178 360 L222 360"/>
  <path d="M182 400 L218 400"/>
  <!-- Side shrines -->
  <path d="M100 580 L100 460 L80 445 L90 428 L82 410 L94 392 L86 375 L100 360 L114 375 L106 392 L118 410 L110 428 L120 445 L100 460"/>
  <path d="M300 580 L300 460 L280 445 L290 428 L282 410 L294 392 L286 375 L300 360 L314 375 L306 392 L318 410 L310 428 L320 445 L300 460"/>
  <!-- Lion sculptures -->
  <ellipse cx="155" cy="500" rx="18" ry="12"/>
  <path d="M140 500 L140 515 L145 515 L145 500"/>
  <path d="M168 500 L168 515 L163 515 L163 500"/>
  <ellipse cx="245" cy="500" rx="18" ry="12"/>
  <path d="M230 500 L230 515 L235 515 L235 500"/>
  <path d="M258 500 L258 515 L253 515 L253 500"/>
  <!-- Entrance archways -->
  <path d="M175 560 Q185 545 195 540 Q205 545 215 560"/>
  <path d="M165 580 L165 560 Q165 550 175 545 L195 540 L215 545 Q225 550 225 560 L225 580"/>
  <!-- Wave base -->
  <path d="M60 590 Q80 585 100 590 Q120 595 140 590 Q160 585 180 590 Q200 595 220 590 Q240 585 260 590 Q280 595 300 590 Q320 585 340 590"/>
  <!-- Decorative carvings on temple -->
  <circle cx="210" cy="150" r="6"/>
  <circle cx="210" cy="200" r="5"/>
  <circle cx="210" cy="250" r="4"/>
  <path d="M198 170 L222 170 L220 180 L200 180 Z"/>
  <path d="M196 210 L224 210 L222 220 L198 220 Z"/>
</svg>
